<?xml version="1.0" encoding="UTF-8" standalone="no"?> <svg xmlns="http://www.w3.org/2000/svg" viewBox="0 0 64 64"><g id="Layer_59" data-name="Layer 59"><path d="M52.72,11.28a15.74,15.74,0,0,0-22.16,0l-2.31,2.31a2,2,0,0,0,2.83,2.83l2.31-2.31a11.67,11.67,0,0,1,16.5,16.5l-2.31,2.31a2,2,0,0,0,2.83,2.83l2.31-2.31A15.69,15.69,0,0,0,52.72,11.28Z"/><path d="M32.92,47.58l-2.31,2.31c-11.38,10.51-27-5.1-16.5-16.5l2.31-2.31a2,2,0,0,0-2.83-2.83l-2.31,2.31A15.67,15.67,0,0,0,33.44,52.72l2.31-2.31A2,2,0,0,0,32.92,47.58Z"/><path d="M37.92,23.25,23.25,37.92a2,2,0,0,0,2.83,2.83L40.75,26.08A2,2,0,0,0,37.92,23.25Z"/></g></svg>