<?xml version="1.0" encoding="UTF-8" standalone="no"?> <svg width="48" height="48" viewBox="0 0 48 48" fill="none" xmlns="http://www.w3.org/2000/svg">
<path d="M28.8719 21C29.1372 21 29.3915 20.8946 29.5791 20.7071C29.7666 20.5196 29.8719 20.2652 29.8719 20C29.8719 19.7348 29.7666 19.4804 29.5791 19.2929C29.3915 19.1054 29.1372 19 28.8719 19H24.8719C24.6067 19 24.3524 19.1054 24.1648 19.2929C23.9773 19.4804 23.8719 19.7348 23.8719 20V28C23.8719 28.2652 23.9773 28.5196 24.1648 28.7071C24.3524 28.8946 24.6067 29 24.8719 29H28.8719C29.1372 29 29.3915 28.8946 29.5791 28.7071C29.7666 28.5196 29.8719 28.2652 29.8719 28C29.8719 27.7348 29.7666 27.4804 29.5791 27.2929C29.3915 27.1054 29.1372 27 28.8719 27H25.8719V25H28.8719C29.1372 25 29.3915 24.8946 29.5791 24.7071C29.7666 24.5196 29.8719 24.2652 29.8719 24C29.8719 23.7348 29.7666 23.4804 29.5791 23.2929C29.3915 23.1054 29.1372 23 28.8719 23H25.8719V21H28.8719Z" fill="black"/>
<path d="M39.2069 26.121C39.0194 25.9335 38.7651 25.8282 38.4999 25.8282C38.2348 25.8282 37.9805 25.9335 37.7929 26.121C37.3734 26.5407 36.8389 26.8265 36.2569 26.9423C35.6749 27.0581 35.0717 26.9988 34.5235 26.7717C33.9752 26.5447 33.5066 26.1602 33.177 25.6668C32.8473 25.1734 32.6713 24.5934 32.6713 24C32.6713 23.4066 32.8473 22.8266 33.177 22.3332C33.5066 21.8398 33.9752 21.4553 34.5235 21.2283C35.0717 21.0012 35.6749 20.9419 36.2569 21.0577C36.8389 21.1735 37.3734 21.4594 37.7929 21.879C37.8859 21.9718 37.9961 22.0455 38.1175 22.0957C38.2389 22.1459 38.3689 22.1718 38.5003 22.1717C38.6316 22.1717 38.7617 22.1457 38.883 22.0954C39.0044 22.0451 39.1146 21.9714 39.2074 21.8785C39.3003 21.7856 39.3739 21.6753 39.4241 21.5539C39.4744 21.4326 39.5002 21.3025 39.5001 21.1711C39.5001 21.0398 39.4742 20.9097 39.4239 20.7884C39.3736 20.6671 39.2999 20.5568 39.2069 20.464C38.5076 19.7649 37.6167 19.2888 36.6468 19.096C35.677 18.9032 34.6717 19.0023 33.7582 19.3807C32.8446 19.7592 32.0638 20.4001 31.5144 21.2223C30.9651 22.0445 30.6719 23.0112 30.6719 24C30.6719 24.9889 30.9651 25.9555 31.5144 26.7777C32.0638 27.5999 32.8446 28.2408 33.7582 28.6193C34.6717 28.9978 35.677 29.0968 36.6468 28.904C37.6167 28.7112 38.5076 28.2351 39.2069 27.536C39.2999 27.4431 39.3737 27.3328 39.424 27.2114C39.4743 27.09 39.5002 26.9599 39.5002 26.8285C39.5002 26.6971 39.4743 26.567 39.424 26.4456C39.3737 26.3242 39.2999 26.2139 39.2069 26.121V26.121Z" fill="black"/>
<path d="M22.672 22C22.672 21.2044 22.3559 20.4413 21.7933 19.8787C21.2307 19.3161 20.4677 19 19.672 19H16.5C16.2348 19 15.9804 19.1054 15.7929 19.2929C15.6054 19.4804 15.5 19.7348 15.5 20V28C15.5 28.2652 15.6054 28.5196 15.7929 28.7071C15.9804 28.8946 16.2348 29 16.5 29C16.7652 29 17.0196 28.8946 17.2071 28.7071C17.3946 28.5196 17.5 28.2652 17.5 28V25.559L21 28.74C21.1963 28.9185 21.4554 29.0117 21.7204 28.9991C21.9854 28.9866 22.2345 28.8693 22.413 28.673C22.5915 28.4767 22.6847 28.2176 22.6721 27.9526C22.6596 27.6876 22.5423 27.4385 22.346 27.26L19.853 25C20.6169 24.9538 21.3342 24.6175 21.8583 24.0598C22.3823 23.5021 22.6734 22.7653 22.672 22V22ZM19.672 23H17.5V21H19.671C19.9362 21 20.1906 21.1054 20.3781 21.2929C20.5656 21.4804 20.671 21.7348 20.671 22C20.671 22.2652 20.5656 22.5196 20.3781 22.7071C20.1906 22.8946 19.9362 23 19.671 23H19.672Z" fill="black"/>
<path d="M9.5 21C8.90666 21 8.32664 21.1759 7.83329 21.5056C7.33994 21.8352 6.95543 22.3038 6.72836 22.8519C6.5013 23.4001 6.44189 24.0033 6.55765 24.5853C6.6734 25.1672 6.95912 25.7018 7.37868 26.1213C7.79824 26.5409 8.33279 26.8266 8.91473 26.9424C9.49667 27.0581 10.0999 26.9987 10.6481 26.7716C11.1962 26.5446 11.6648 26.1601 11.9944 25.6667C12.3241 25.1734 12.5 24.5933 12.5 24C12.5 23.2044 12.1839 22.4413 11.6213 21.8787C11.0587 21.3161 10.2957 21 9.5 21V21ZM9.5 25C9.30222 25 9.10888 24.9414 8.94443 24.8315C8.77998 24.7216 8.65181 24.5654 8.57612 24.3827C8.50043 24.2 8.48063 23.9989 8.51922 23.8049C8.5578 23.6109 8.65304 23.4327 8.79289 23.2929C8.93275 23.153 9.11093 23.0578 9.30491 23.0192C9.49889 22.9806 9.69996 23.0004 9.88268 23.0761C10.0654 23.1518 10.2216 23.28 10.3315 23.4444C10.4414 23.6089 10.5 23.8022 10.5 24C10.5 24.2652 10.3946 24.5196 10.2071 24.7071C10.0196 24.8946 9.76522 25 9.5 25Z" fill="black"/>
<path d="M42 7H6C4.6744 7.00159 3.40356 7.52888 2.46622 8.46622C1.52888 9.40356 1.00159 10.6744 1 12V36C1.00159 37.3256 1.52888 38.5964 2.46622 39.5338C3.40356 40.4711 4.6744 40.9984 6 41H42C43.3256 40.9984 44.5964 40.4711 45.5338 39.5338C46.4711 38.5964 46.9984 37.3256 47 36V12C46.9984 10.6744 46.4711 9.40356 45.5338 8.46622C44.5964 7.52888 43.3256 7.00159 42 7V7ZM45 36C45 36.7956 44.6839 37.5587 44.1213 38.1213C43.5587 38.6839 42.7956 39 42 39H6C5.20435 39 4.44129 38.6839 3.87868 38.1213C3.31607 37.5587 3 36.7956 3 36V12C3 11.2044 3.31607 10.4413 3.87868 9.87868C4.44129 9.31607 5.20435 9 6 9H42C42.7956 9 43.5587 9.31607 44.1213 9.87868C44.6839 10.4413 45 11.2044 45 12V36Z" fill="black"/>
<path d="M6 18C6.26522 18 6.51957 17.8946 6.70711 17.7071C6.89464 17.5196 7 17.2652 7 17V13H11C11.2652 13 11.5196 12.8946 11.7071 12.7071C11.8946 12.5196 12 12.2652 12 12C12 11.7348 11.8946 11.4804 11.7071 11.2929C11.5196 11.1054 11.2652 11 11 11H7C6.46957 11 5.96086 11.2107 5.58579 11.5858C5.21071 11.9609 5 12.4696 5 13V17C5 17.2652 5.10536 17.5196 5.29289 17.7071C5.48043 17.8946 5.73478 18 6 18Z" fill="black"/>
<path d="M42 30C41.7348 30 41.4804 30.1054 41.2929 30.2929C41.1054 30.4804 41 30.7348 41 31V35H37C36.7348 35 36.4804 35.1054 36.2929 35.2929C36.1054 35.4804 36 35.7348 36 36C36 36.2652 36.1054 36.5196 36.2929 36.7071C36.4804 36.8946 36.7348 37 37 37H41C41.5304 37 42.0391 36.7893 42.4142 36.4142C42.7893 36.0391 43 35.5304 43 35V31C43 30.7348 42.8946 30.4804 42.7071 30.2929C42.5196 30.1054 42.2652 30 42 30Z" fill="black"/>
<path d="M41 11H37C36.7348 11 36.4804 11.1054 36.2929 11.2929C36.1054 11.4804 36 11.7348 36 12C36 12.2652 36.1054 12.5196 36.2929 12.7071C36.4804 12.8946 36.7348 13 37 13H41V17C41 17.2652 41.1054 17.5196 41.2929 17.7071C41.4804 17.8946 41.7348 18 42 18C42.2652 18 42.5196 17.8946 42.7071 17.7071C42.8946 17.5196 43 17.2652 43 17V13C43 12.4696 42.7893 11.9609 42.4142 11.5858C42.0391 11.2107 41.5304 11 41 11Z" fill="black"/>
<path d="M11 35H7V31C7 30.7348 6.89464 30.4804 6.70711 30.2929C6.51957 30.1054 6.26522 30 6 30C5.73478 30 5.48043 30.1054 5.29289 30.2929C5.10536 30.4804 5 30.7348 5 31V35C5 35.5304 5.21071 36.0391 5.58579 36.4142C5.96086 36.7893 6.46957 37 7 37H11C11.2652 37 11.5196 36.8946 11.7071 36.7071C11.8946 36.5196 12 36.2652 12 36C12 35.7348 11.8946 35.4804 11.7071 35.2929C11.5196 35.1054 11.2652 35 11 35Z" fill="black"/>
</svg>
